<mxfile host="app.diagrams.net" modified="2024-05-12T21:30:07.062Z" agent="Mozilla/5.0 (Windows NT 10.0; Win64; x64) AppleWebKit/537.36 (KHTML, like Gecko) Chrome/124.0.0.0 Safari/537.36" etag="FVC69Rb_ALkbFdgZLmgx" version="23.0.2" type="device">
  <diagram name="Pagina-1" id="CwePqyyfgAffdBG2v5J7">
    <mxGraphModel dx="1050" dy="557" grid="1" gridSize="10" guides="1" tooltips="1" connect="1" arrows="1" fold="1" page="1" pageScale="1" pageWidth="827" pageHeight="1169" math="0" shadow="0">
      <root>
        <mxCell id="0" />
        <mxCell id="1" parent="0" />
        <mxCell id="4ZFpKa0eZ_2mTBFyG8dC-13" value="Container" style="rounded=1;whiteSpace=wrap;html=1;labelBackgroundColor=#FFFFFF;fontSize=18;fillColor=#dae8fc;strokeColor=#6c8ebf;" vertex="1" parent="1">
          <mxGeometry x="330" y="320" width="170" height="120" as="geometry" />
        </mxCell>
        <mxCell id="4ZFpKa0eZ_2mTBFyG8dC-14" value="" style="rounded=1;whiteSpace=wrap;html=1;labelBackgroundColor=#FFFFFF;fontSize=18;fillColor=#f8cecc;strokeColor=#b85450;" vertex="1" parent="1">
          <mxGeometry x="505" y="320" width="170" height="120" as="geometry" />
        </mxCell>
        <mxCell id="4ZFpKa0eZ_2mTBFyG8dC-15" value="" style="rounded=1;whiteSpace=wrap;html=1;labelBackgroundColor=#FFFFFF;fontSize=18;fillColor=#d5e8d4;strokeColor=#82b366;" vertex="1" parent="1">
          <mxGeometry x="680" y="320" width="170" height="120" as="geometry" />
        </mxCell>
        <mxCell id="4ZFpKa0eZ_2mTBFyG8dC-16" value="&lt;font style=&quot;font-size: 18px;&quot;&gt;Hardware&lt;/font&gt;" style="rounded=1;whiteSpace=wrap;html=1;fillColor=#E6E6E6;" vertex="1" parent="1">
          <mxGeometry x="420" y="630" width="520" height="60" as="geometry" />
        </mxCell>
        <mxCell id="4ZFpKa0eZ_2mTBFyG8dC-17" value="" style="rounded=1;whiteSpace=wrap;html=1;fontSize=18;fillColor=#66B2FF;" vertex="1" parent="1">
          <mxGeometry x="420" y="490" width="520" height="130" as="geometry" />
        </mxCell>
        <mxCell id="4ZFpKa0eZ_2mTBFyG8dC-18" value="Docker container" style="rounded=1;whiteSpace=wrap;html=1;fontSize=18;fillColor=#007FFF;" vertex="1" parent="1">
          <mxGeometry x="430" y="500" width="500" height="60" as="geometry" />
        </mxCell>
        <mxCell id="4ZFpKa0eZ_2mTBFyG8dC-19" value="" style="endArrow=classic;startArrow=classic;html=1;fontSize=18;" edge="1" parent="1">
          <mxGeometry width="50" height="50" relative="1" as="geometry">
            <mxPoint x="641.5" y="500" as="sourcePoint" />
            <mxPoint x="642" y="430" as="targetPoint" />
          </mxGeometry>
        </mxCell>
        <mxCell id="4ZFpKa0eZ_2mTBFyG8dC-20" value="" style="endArrow=classic;startArrow=classic;html=1;fontSize=18;" edge="1" parent="1">
          <mxGeometry width="50" height="50" relative="1" as="geometry">
            <mxPoint x="552" y="500" as="sourcePoint" />
            <mxPoint x="472" y="430" as="targetPoint" />
          </mxGeometry>
        </mxCell>
        <mxCell id="4ZFpKa0eZ_2mTBFyG8dC-21" value="&lt;font color=&quot;#ffffff&quot;&gt;Frontend&lt;/font&gt;" style="rounded=1;whiteSpace=wrap;html=1;fontSize=18;fillColor=#0000FF;" vertex="1" parent="1">
          <mxGeometry x="340" y="330" width="150" height="60" as="geometry" />
        </mxCell>
        <mxCell id="4ZFpKa0eZ_2mTBFyG8dC-22" value="&lt;font color=&quot;#ffffff&quot;&gt;Backend&lt;/font&gt;" style="rounded=1;whiteSpace=wrap;html=1;fontSize=18;fillColor=#CC0000;" vertex="1" parent="1">
          <mxGeometry x="510" y="330" width="160" height="60" as="geometry" />
        </mxCell>
        <mxCell id="4ZFpKa0eZ_2mTBFyG8dC-23" value="&lt;font color=&quot;#ffffff&quot;&gt;Database&lt;/font&gt;" style="rounded=1;whiteSpace=wrap;html=1;fontSize=18;fillColor=#006600;" vertex="1" parent="1">
          <mxGeometry x="690" y="330" width="150" height="60" as="geometry" />
        </mxCell>
        <mxCell id="4ZFpKa0eZ_2mTBFyG8dC-25" value="Container" style="text;html=1;strokeColor=none;fillColor=none;align=center;verticalAlign=middle;whiteSpace=wrap;rounded=0;labelBackgroundColor=none;fontSize=18;fontColor=#000000;" vertex="1" parent="1">
          <mxGeometry x="385" y="400" width="60" height="30" as="geometry" />
        </mxCell>
        <mxCell id="4ZFpKa0eZ_2mTBFyG8dC-26" value="Container" style="text;html=1;strokeColor=none;fillColor=none;align=center;verticalAlign=middle;whiteSpace=wrap;rounded=0;labelBackgroundColor=none;fontSize=18;fontColor=#000000;" vertex="1" parent="1">
          <mxGeometry x="560" y="400" width="60" height="30" as="geometry" />
        </mxCell>
        <mxCell id="4ZFpKa0eZ_2mTBFyG8dC-27" value="&lt;font color=&quot;#000000&quot;&gt;Container&lt;/font&gt;" style="text;html=1;strokeColor=none;fillColor=none;align=center;verticalAlign=middle;whiteSpace=wrap;rounded=0;labelBackgroundColor=none;fontSize=18;fontColor=#FFFFFF;" vertex="1" parent="1">
          <mxGeometry x="735" y="400" width="60" height="30" as="geometry" />
        </mxCell>
        <mxCell id="4ZFpKa0eZ_2mTBFyG8dC-28" value="&lt;font style=&quot;font-size: 18px;&quot;&gt;Virtual Machine&lt;/font&gt;" style="text;html=1;strokeColor=none;fillColor=none;align=center;verticalAlign=middle;whiteSpace=wrap;rounded=0;" vertex="1" parent="1">
          <mxGeometry x="595" y="570" width="170" height="40" as="geometry" />
        </mxCell>
        <mxCell id="4ZFpKa0eZ_2mTBFyG8dC-29" value="" style="rounded=1;whiteSpace=wrap;html=1;labelBackgroundColor=#FFFFFF;fontSize=18;fillColor=#647687;strokeColor=#314354;fontColor=#ffffff;" vertex="1" parent="1">
          <mxGeometry x="854" y="320" width="170" height="120" as="geometry" />
        </mxCell>
        <mxCell id="4ZFpKa0eZ_2mTBFyG8dC-30" value="&lt;font color=&quot;#ffffff&quot;&gt;Keycloak&lt;/font&gt;" style="rounded=1;whiteSpace=wrap;html=1;fontSize=18;fillColor=#bac8d3;strokeColor=#23445d;" vertex="1" parent="1">
          <mxGeometry x="864" y="330" width="150" height="60" as="geometry" />
        </mxCell>
        <mxCell id="4ZFpKa0eZ_2mTBFyG8dC-31" value="&lt;font color=&quot;#000000&quot;&gt;Container&lt;/font&gt;" style="text;html=1;strokeColor=none;fillColor=none;align=center;verticalAlign=middle;whiteSpace=wrap;rounded=0;labelBackgroundColor=none;fontSize=18;fontColor=#FFFFFF;" vertex="1" parent="1">
          <mxGeometry x="909" y="400" width="60" height="30" as="geometry" />
        </mxCell>
        <mxCell id="4ZFpKa0eZ_2mTBFyG8dC-35" value="" style="endArrow=classic;startArrow=classic;html=1;fontSize=18;" edge="1" parent="1">
          <mxGeometry width="50" height="50" relative="1" as="geometry">
            <mxPoint x="717" y="500" as="sourcePoint" />
            <mxPoint x="717.5" y="430" as="targetPoint" />
          </mxGeometry>
        </mxCell>
        <mxCell id="4ZFpKa0eZ_2mTBFyG8dC-24" value="" style="endArrow=classic;startArrow=classic;html=1;fontSize=18;" edge="1" parent="1">
          <mxGeometry width="50" height="50" relative="1" as="geometry">
            <mxPoint x="813" y="500" as="sourcePoint" />
            <mxPoint x="883" y="430" as="targetPoint" />
          </mxGeometry>
        </mxCell>
      </root>
    </mxGraphModel>
  </diagram>
</mxfile>
